<svg width="24" height="24" viewBox="0 0 24 24" fill="none" xmlns="http://www.w3.org/2000/svg">
<path d="M17.4004 14.8499V5.4999C17.4004 4.0499 16.2504 2.8999 14.8004 2.8999H5.50039C4.05039 2.8999 2.90039 4.0499 2.90039 5.4999V14.8499C2.90039 16.2999 4.05039 17.4499 5.50039 17.4499H14.8504C16.2504 17.3999 17.4004 16.2499 17.4004 14.8499ZM19.6004 7.4999V15.5499C19.6004 17.7999 17.7504 19.6499 15.5004 19.6499H7.45039C7.15039 19.6499 7.00039 19.9999 7.20039 20.1999C7.70039 20.7499 8.40039 21.0999 9.25039 21.0999H15.9504C18.8004 21.0999 21.1004 18.7999 21.1004 15.9499V9.2499C21.1004 8.4499 20.7504 7.6999 20.2004 7.1999C19.9504 6.9999 19.6004 7.1999 19.6004 7.4999Z" fill="white"/>
</svg>
